<?xml version="1.0" standalone="no"?>
<!DOCTYPE svg PUBLIC "-//W3C//DTD SVG 20010904//EN"
 "http://www.w3.org/TR/2001/REC-SVG-20010904/DTD/svg10.dtd">
<svg version="1.0" xmlns="http://www.w3.org/2000/svg"
 width="1920.000000pt" height="1920.000000pt" viewBox="0 0 1920.000000 1920.000000"
 preserveAspectRatio="xMidYMid meet">
<metadata>
Created by potrace 1.14, written by Peter Selinger 2001-2017
</metadata>
<g transform="translate(0.000000,1920.000000) scale(0.100000,-0.100000)"
fill="#000000" stroke="none">
<path d="M0 9600 l0 -9600 9600 0 9600 0 0 9600 0 9600 -9600 0 -9600 0 0
-9600z m10009 5742 c592 -377 3065 -1948 4156 -2641 369 -233 673 -430 677
-435 9 -13 11 -1480 2 -1489 -3 -3 -54 25 -112 62 -173 109 -4122 2618 -4777
3034 -181 116 -338 212 -347 215 -11 2 -123 -63 -290 -169 -150 -95 -444 -282
-653 -414 -209 -133 -857 -545 -1440 -915 -583 -370 -1177 -747 -1320 -838
-143 -90 -268 -171 -277 -180 -17 -14 -18 -187 -18 -3359 l0 -3343 3985 0
3985 0 -2 2226 -3 2226 -1010 641 c-556 353 -1163 739 -1350 858 -187 119
-625 396 -972 617 -348 221 -637 402 -643 402 -6 0 -126 -74 -268 -163 -475
-302 -1737 -1104 -1779 -1131 l-43 -26 0 -2510 0 -2510 -635 0 -635 0 0 2858
0 2857 538 341 c295 188 1051 668 1680 1067 l1142 726 333 -211 c182 -116 496
-316 697 -443 201 -127 559 -355 795 -505 809 -514 1900 -1207 2645 -1680 410
-260 753 -479 763 -488 16 -14 17 -177 15 -3216 l-3 -3201 -5245 0 -5245 0 -2
4325 c-2 2379 1 4330 5 4336 4 5 477 309 1052 674 575 365 1403 890 1840 1168
437 278 1002 637 1255 797 253 161 602 383 775 493 173 111 317 201 319 202 2
0 186 -116 410 -258z"/>
</g>
</svg>
